<svg xmlns="http://www.w3.org/2000/svg" viewBox="0 0 128 128" fill="none">
  <rect width="128" height="128" rx="28" fill="#F5EBD8"/>
  <path d="M30 26h48c10.493 0 19 8.507 19 19v54c0 1.657-1.343 3-3 3H46.5C37.387 102 30 94.613 30 85.5V26Z" fill="#B55E24"/>
  <path d="M39 36h39c4.971 0 9 4.029 9 9v48H48c-4.971 0-9-4.029-9-9V36Z" fill="#FFF8EE"/>
  <path d="M48 46h29M48 58h29M48 70h21" stroke="#19415A" stroke-width="6" stroke-linecap="round"/>
  <circle cx="92" cy="34" r="12" fill="#19415A"/>
  <path d="M92 26v16M84 34h16M86.3 28.3l11.4 11.4M97.7 28.3 86.3 39.7" stroke="#F5EBD8" stroke-width="2.2" stroke-linecap="round"/>
</svg>
